<svg id="Capa_1" data-name="Capa 1" xmlns="http://www.w3.org/2000/svg" viewBox="0 0 1920 608"><defs><style>.cls-1{fill:#98ca3f;fill-rule:evenodd;}.cls-2{fill:#fff;}</style></defs><path class="cls-1" d="M369.05,79,200.3,247.75a79.54,79.54,0,0,0,0,112.5L369.05,529a79.57,79.57,0,0,0,112.51,0l56.25-56.26L481.56,416.5l-56.25,56.25L256.55,304,425.31,135.25l112.5,112.5-112.5,112.5,56.25,56.25L594.06,304a79.54,79.54,0,0,0,0-112.5L481.56,79A79.57,79.57,0,0,0,369.05,79Z"/><path class="cls-2" d="M722.12,451.4V158.25H843.56C908.89,158.25,947,206,947,261.69c0,54.86-39,101.76-103.44,101.76H771.11V451.4ZM843.56,320.74c33.08,0,56.54-26.39,56.54-60.31s-22.62-59.88-56.54-59.88H770.28V320.74Z"/><path class="cls-2" d="M1022.25,158.25V379c0,33.5,8.79,44,43.55,38.53l1.68,35.17c-62,10.05-90.46-5.86-90.46-73.28V158.25Z"/><path class="cls-2" d="M1276.36,391.09c0,18.43-.41,30.15,21.78,28.06v31c-28.9,5.44-58.63,2.09-58.63-31.41v-8.37c-11.31,28.05-39.78,44-69.52,44-61.56,0-91.29-49.42-91.29-106.37,1.26-67,49-103.86,114.75-102.6,28.89,0,56.53,7.12,82.91,18.84Zm-44-100.5c-13.82-6.29-29.31-8.38-42.29-8.38-38.53,0-64.5,22.19-65.75,65.75,0,36.85,18,65.75,55.28,65.75,33.92,0,51.51-26.39,52.76-63.66Z"/><path class="cls-2" d="M1393.91,250h69.94v36.86h-69.94V373.5c0,51.51,32.25,54.86,73.71,40.21l4.6,34.34c-69.1,21.35-123.12,5.44-123.12-73.71V286.82h-41V250h41V200.55h44.81Z"/><path class="cls-2" d="M1492.53,442.18l58.63-91.71,44-63.65h-96.32V249.54h162.07v5.87l-62.4,96.74-41,59.88h103V451.4H1492.53Z"/><path class="cls-2" d="M1715.78,157.77c13.82,0,27.22,9.21,27.22,26.8,0,18-13.4,27.22-26.8,27.22-13.82,0-28.06-8.79-28.06-27.22C1688.14,166.56,1702,157.77,1715.78,157.77Zm22.61,293.63h-45.64V250h45.64Z"/></svg>